<svg xmlns="http://www.w3.org/2000/svg" viewBox="0 0 160 200" fill="none">  <path d="M 78.5 11.0 C 79.08 10.58, 78.75 10.83, 79.0 11.0 C 79.25 11.17, 79.67 11.83, 80.0 12.0 C 80.33 12.17, 80.5 11.67, 81.0 12.0 C 81.5 12.33, 82.42 13.58, 83.0 14.0 C 83.58 14.42, 83.67 14.0, 84.5 14.5 C 85.33 15.0, 87.25 16.58, 88.0 17.0 C 88.75 17.42, 87.33 16.25, 89.0 17.0 C 90.67 17.75, 96.33 20.75, 98.0 21.5 C 99.67 22.25, 98.42 21.25, 99.0 21.5 C 99.58 21.75, 100.67 22.67, 101.5 23.0 C 102.33 23.33, 103.5 23.33, 104.0 23.5 C 104.5 23.67, 104.25 23.92, 104.5 24.0 C 104.75 24.08, 105.08 23.83, 105.5 24.0 C 105.92 24.17, 106.17 24.75, 107.0 25.0 C 107.83 25.25, 109.67 25.25, 110.5 25.5 C 111.33 25.75, 111.33 26.25, 112.0 26.5 C 112.67 26.75, 113.75 26.75, 114.5 27.0 C 115.25 27.25, 115.92 27.83, 116.5 28.0 C 117.08 28.17, 117.67 27.92, 118.0 28.0 C 118.33 28.08, 118.0 28.42, 118.5 28.5 C 119.0 28.58, 120.33 28.33, 121.0 28.5 C 121.67 28.67, 121.5 29.25, 122.5 29.5 C 123.5 29.75, 126.17 29.83, 127.0 30.0 C 127.83 30.17, 127.17 30.42, 127.5 30.5 C 127.83 30.58, 128.67 30.42, 129.0 30.5 C 129.33 30.58, 129.17 30.92, 129.5 31.0 C 129.83 31.08, 130.67 30.92, 131.0 31.0 C 131.33 31.08, 131.17 31.42, 131.5 31.5 C 131.83 31.58, 132.67 31.42, 133.0 31.5 C 133.33 31.58, 132.83 31.92, 133.5 32.0 C 134.17 32.08, 136.17 31.83, 137.0 32.0 C 137.83 32.17, 137.67 32.83, 138.5 33.0 C 139.33 33.17, 141.33 32.92, 142.0 33.0 C 142.67 33.08, 142.17 33.42, 142.5 33.5 C 142.83 33.58, 143.67 33.42, 144.0 33.5 C 144.33 33.58, 143.92 33.92, 144.5 34.0 C 145.08 34.08, 146.75 33.83, 147.5 34.0 C 148.25 34.17, 148.5 34.83, 149.0 35.0 C 149.5 35.17, 150.25 34.75, 150.5 35.0 C 150.75 35.25, 150.42 36.17, 150.5 36.5 C 150.58 36.83, 150.92 36.5, 151.0 37.0 C 151.08 37.5, 151.08 39.0, 151.0 39.5 C 150.92 40.0, 150.58 37.92, 150.5 40.0 C 150.42 42.08, 150.58 49.92, 150.5 52.0 C 150.42 54.08, 150.08 52.25, 150.0 52.5 C 149.92 52.75, 149.92 53.25, 150.0 53.5 C 150.08 53.75, 150.42 53.42, 150.5 54.0 C 150.58 54.58, 150.58 56.42, 150.5 57.0 C 150.42 57.58, 150.08 57.08, 150.0 57.5 C 149.92 57.92, 150.08 59.08, 150.0 59.5 C 149.92 59.92, 149.58 59.75, 149.5 60.0 C 149.42 60.25, 149.58 60.92, 149.5 61.0 C 149.42 61.08, 149.25 60.58, 149.0 60.5 C 148.75 60.42, 148.67 60.75, 148.0 60.5 C 147.33 60.25, 146.83 59.25, 145.0 59.0 C 143.17 58.75, 138.42 58.92, 137.0 59.0 C 135.58 59.08, 136.83 59.42, 136.5 59.5 C 136.17 59.58, 135.75 59.25, 135.0 59.5 C 134.25 59.75, 132.67 60.58, 132.0 61.0 C 131.33 61.42, 131.42 61.75, 131.0 62.0 C 130.58 62.25, 129.92 62.25, 129.5 62.5 C 129.08 62.75, 128.92 63.25, 128.5 63.5 C 128.08 63.75, 127.75 63.42, 127.0 64.0 C 126.25 64.58, 124.83 66.33, 124.0 67.0 C 123.17 67.67, 122.42 67.67, 122.0 68.0 C 121.58 68.33, 122.33 68.08, 121.5 69.0 C 120.67 69.92, 117.75 72.67, 117.0 73.5 C 116.25 74.33, 117.08 73.92, 117.0 74.0 C 116.92 74.08, 116.75 73.83, 116.5 74.0 C 116.25 74.17, 115.67 74.75, 115.5 75.0 C 115.33 75.25, 115.58 75.42, 115.5 75.5 C 115.42 75.58, 115.25 75.33, 115.0 75.5 C 114.75 75.67, 114.17 76.25, 114.0 76.5 C 113.83 76.75, 114.25 76.67, 114.0 77.0 C 113.75 77.33, 112.75 78.17, 112.5 78.5 C 112.25 78.83, 113.0 78.42, 112.5 79.0 C 112.0 79.58, 110.0 81.42, 109.5 82.0 C 109.0 82.58, 109.75 82.17, 109.5 82.5 C 109.25 82.83, 108.25 83.67, 108.0 84.0 C 107.75 84.33, 108.25 84.25, 108.0 84.5 C 107.75 84.75, 106.75 85.17, 106.5 85.5 C 106.25 85.83, 107.0 85.83, 106.5 86.5 C 106.0 87.17, 104.17 88.58, 103.5 89.5 C 102.83 90.42, 102.83 91.42, 102.5 92.0 C 102.17 92.58, 101.83 92.5, 101.5 93.0 C 101.17 93.5, 100.83 94.5, 100.5 95.0 C 100.17 95.5, 99.75 95.58, 99.5 96.0 C 99.25 96.42, 99.42 96.83, 99.0 97.5 C 98.58 98.17, 97.58 99.0, 97.0 100.0 C 96.42 101.0, 96.25 102.5, 95.5 103.5 C 94.75 104.5, 93.08 105.42, 92.5 106.0 C 91.92 106.58, 92.0 106.67, 92.0 107.0 C 92.0 107.33, 92.58 107.67, 92.5 108.0 C 92.42 108.33, 91.75 108.5, 91.5 109.0 C 91.25 109.5, 91.17 110.58, 91.0 111.0 C 90.83 111.42, 90.58 111.67, 90.5 111.5 C 90.42 111.33, 90.42 110.33, 90.5 110.0 C 90.58 109.67, 90.92 110.0, 91.0 109.5 C 91.08 109.0, 90.75 107.75, 91.0 107.0 C 91.25 106.25, 92.17 106.0, 92.5 105.0 C 92.83 104.0, 92.75 102.0, 93.0 101.0 C 93.25 100.0, 93.75 99.83, 94.0 99.0 C 94.25 98.17, 94.25 96.75, 94.5 96.0 C 94.75 95.25, 95.25 95.33, 95.5 94.5 C 95.75 93.67, 95.75 91.92, 96.0 91.0 C 96.25 90.08, 96.83 89.58, 97.0 89.0 C 97.17 88.42, 96.92 87.83, 97.0 87.5 C 97.08 87.17, 97.42 87.42, 97.5 87.0 C 97.58 86.58, 97.33 85.58, 97.5 85.0 C 97.67 84.42, 98.33 84.0, 98.5 83.5 C 98.67 83.0, 98.33 82.58, 98.5 82.0 C 98.67 81.42, 99.33 81.0, 99.5 80.0 C 99.67 79.0, 99.42 76.75, 99.5 76.0 C 99.58 75.25, 99.92 75.92, 100.0 75.5 C 100.08 75.08, 99.92 73.92, 100.0 73.5 C 100.08 73.08, 100.42 73.75, 100.5 73.0 C 100.58 72.25, 100.58 69.75, 100.5 69.0 C 100.42 68.25, 100.08 68.92, 100.0 68.5 C 99.92 68.08, 100.08 66.92, 100.0 66.5 C 99.92 66.08, 99.58 66.25, 99.5 66.0 C 99.42 65.75, 99.75 65.67, 99.5 65.0 C 99.25 64.33, 98.5 62.75, 98.0 62.0 C 97.5 61.25, 96.83 60.75, 96.5 60.5 C 96.17 60.25, 96.42 60.75, 96.0 60.5 C 95.58 60.25, 94.75 59.25, 94.0 59.0 C 93.25 58.75, 92.08 59.08, 91.5 59.0 C 90.92 58.92, 90.75 58.5, 90.5 58.5 C 90.25 58.5, 90.75 58.92, 90.0 59.0 C 89.25 59.08, 86.75 58.92, 86.0 59.0 C 85.25 59.08, 86.0 59.42, 85.5 59.5 C 85.0 59.58, 83.75 59.33, 83.0 59.5 C 82.25 59.67, 81.58 60.33, 81.0 60.5 C 80.42 60.67, 80.25 60.25, 79.5 60.5 C 78.75 60.75, 77.17 61.75, 76.5 62.0 C 75.83 62.25, 76.08 61.75, 75.5 62.0 C 74.92 62.25, 73.58 63.25, 73.0 63.5 C 72.42 63.75, 73.33 62.67, 72.0 63.5 C 70.67 64.33, 66.25 67.67, 65.0 68.5 C 63.75 69.33, 65.33 67.83, 64.5 68.5 C 63.67 69.17, 60.83 71.83, 60.0 72.5 C 59.17 73.17, 60.25 71.83, 59.5 72.5 C 58.75 73.17, 56.25 75.83, 55.5 76.5 C 54.75 77.17, 55.25 76.25, 55.0 76.5 C 54.75 76.75, 54.33 77.75, 54.0 78.0 C 53.67 78.25, 53.25 77.92, 53.0 78.0 C 52.75 78.08, 52.58 78.25, 52.5 78.5 C 52.42 78.75, 53.83 77.83, 52.5 79.5 C 51.17 81.17, 45.83 86.83, 44.5 88.5 C 43.17 90.17, 44.67 89.17, 44.5 89.5 C 44.33 89.83, 43.67 90.0, 43.5 90.5 C 43.33 91.0, 42.75 91.42, 43.5 92.5 C 44.25 93.58, 47.08 96.17, 48.0 97.0 C 48.92 97.83, 48.67 97.5, 49.0 97.5 C 49.33 97.5, 48.17 98.75, 50.0 97.0 C 51.83 95.25, 58.25 88.67, 60.0 87.0 C 61.75 85.33, 59.83 87.58, 60.5 87.0 C 61.17 86.42, 63.33 84.08, 64.0 83.5 C 64.67 82.92, 64.08 83.83, 64.5 83.5 C 64.92 83.17, 66.0 81.83, 66.5 81.5 C 67.0 81.17, 67.25 81.67, 67.5 81.5 C 67.75 81.33, 67.67 80.75, 68.0 80.5 C 68.33 80.25, 68.83 80.42, 69.5 80.0 C 70.17 79.58, 71.0 78.42, 72.0 78.0 C 73.0 77.58, 74.58 77.42, 75.5 77.5 C 76.42 77.58, 77.0 78.17, 77.5 78.5 C 78.0 78.83, 78.33 78.92, 78.5 79.5 C 78.67 80.08, 78.42 81.5, 78.5 82.0 C 78.58 82.5, 78.92 82.25, 79.0 82.5 C 79.08 82.75, 79.08 83.25, 79.0 83.5 C 78.92 83.75, 78.58 83.5, 78.5 84.0 C 78.42 84.5, 78.58 86.0, 78.5 86.5 C 78.42 87.0, 78.08 86.67, 78.0 87.0 C 77.92 87.33, 78.17 88.0, 78.0 88.5 C 77.83 89.0, 77.17 89.5, 77.0 90.0 C 76.83 90.5, 77.17 90.92, 77.0 91.5 C 76.83 92.08, 76.25 92.42, 76.0 93.5 C 75.75 94.58, 75.83 96.75, 75.5 98.0 C 75.17 99.25, 74.25 100.25, 74.0 101.0 C 73.75 101.75, 74.08 102.17, 74.0 102.5 C 73.92 102.83, 73.58 102.67, 73.5 103.0 C 73.42 103.33, 73.58 104.17, 73.5 104.5 C 73.42 104.83, 73.17 104.42, 73.0 105.0 C 72.83 105.58, 72.92 106.83, 72.5 108.0 C 72.08 109.17, 70.92 110.75, 70.5 112.0 C 70.08 113.25, 70.25 114.58, 70.0 115.5 C 69.75 116.42, 69.17 116.83, 69.0 117.5 C 68.83 118.17, 69.08 119.08, 69.0 119.5 C 68.92 119.92, 68.67 119.5, 68.5 120.0 C 68.33 120.5, 68.25 121.83, 68.0 122.5 C 67.75 123.17, 67.17 123.42, 67.0 124.0 C 66.83 124.58, 67.17 125.42, 67.0 126.0 C 66.83 126.58, 66.25 126.67, 66.0 127.5 C 65.75 128.33, 65.83 129.92, 65.5 131.0 C 65.17 132.08, 64.25 133.25, 64.0 134.0 C 63.75 134.75, 64.17 134.92, 64.0 135.5 C 63.83 136.08, 63.17 136.92, 63.0 137.5 C 62.83 138.08, 63.17 138.58, 63.0 139.0 C 62.83 139.42, 62.25 139.42, 62.0 140.0 C 61.75 140.58, 61.67 142.0, 61.5 142.5 C 61.33 143.0, 61.08 142.67, 61.0 143.0 C 60.92 143.33, 61.17 144.0, 61.0 144.5 C 60.83 145.0, 60.17 145.5, 60.0 146.0 C 59.83 146.5, 60.25 146.83, 60.0 147.5 C 59.75 148.17, 58.75 149.33, 58.5 150.0 C 58.25 150.67, 58.67 151.0, 58.5 151.5 C 58.33 152.0, 57.67 152.42, 57.5 153.0 C 57.33 153.58, 57.58 154.58, 57.5 155.0 C 57.42 155.42, 57.17 155.0, 57.0 155.5 C 56.83 156.0, 56.92 157.0, 56.5 158.0 C 56.08 159.0, 54.83 160.67, 54.5 161.5 C 54.17 162.33, 54.58 162.67, 54.5 163.0 C 54.42 163.33, 54.17 163.0, 54.0 163.5 C 53.83 164.0, 53.67 165.5, 53.5 166.0 C 53.33 166.5, 53.08 166.17, 53.0 166.5 C 52.92 166.83, 53.08 167.58, 53.0 168.0 C 52.92 168.42, 52.75 168.75, 52.5 169.0 C 52.25 169.25, 52.17 169.92, 51.5 169.5 C 50.83 169.08, 49.0 167.08, 48.5 166.5 C 48.0 165.92, 49.08 166.58, 48.5 166.0 C 47.92 165.42, 45.58 163.58, 45.0 163.0 C 44.42 162.42, 45.25 162.83, 45.0 162.5 C 44.75 162.17, 43.75 161.33, 43.5 161.0 C 43.25 160.67, 44.08 161.17, 43.5 160.5 C 42.92 159.83, 40.58 157.67, 40.0 157.0 C 39.42 156.33, 40.25 156.83, 40.0 156.5 C 39.75 156.17, 38.75 155.33, 38.5 155.0 C 38.25 154.67, 38.75 154.83, 38.5 154.5 C 38.25 154.17, 37.25 153.33, 37.0 153.0 C 36.75 152.67, 37.42 153.0, 37.0 152.5 C 36.58 152.0, 35.17 150.92, 34.5 150.0 C 33.83 149.08, 33.5 147.75, 33.0 147.0 C 32.5 146.25, 32.08 146.42, 31.5 145.5 C 30.92 144.58, 30.17 142.58, 29.5 141.5 C 28.83 140.42, 27.83 139.58, 27.5 139.0 C 27.17 138.42, 27.67 138.33, 27.5 138.0 C 27.33 137.67, 27.0 137.92, 26.5 137.0 C 26.0 136.08, 25.0 133.42, 24.5 132.5 C 24.0 131.58, 23.67 131.83, 23.5 131.5 C 23.33 131.17, 23.67 130.92, 23.5 130.5 C 23.33 130.08, 22.67 129.42, 22.5 129.0 C 22.33 128.58, 22.67 128.33, 22.5 128.0 C 22.33 127.67, 21.83 127.5, 21.5 127.0 C 21.17 126.5, 20.67 125.5, 20.5 125.0 C 20.33 124.5, 20.67 124.42, 20.5 124.0 C 20.33 123.58, 19.67 122.92, 19.5 122.5 C 19.33 122.08, 19.67 121.92, 19.5 121.5 C 19.33 121.08, 18.67 120.42, 18.5 120.0 C 18.33 119.58, 18.75 119.58, 18.5 119.0 C 18.25 118.42, 17.33 117.33, 17.0 116.5 C 16.67 115.67, 16.75 114.75, 16.5 114.0 C 16.25 113.25, 15.67 112.67, 15.5 112.0 C 15.33 111.33, 15.67 110.58, 15.5 110.0 C 15.33 109.42, 14.75 109.25, 14.5 108.5 C 14.25 107.75, 14.25 106.25, 14.0 105.5 C 13.75 104.75, 13.25 105.08, 13.0 104.0 C 12.75 102.92, 12.67 99.92, 12.5 99.0 C 12.33 98.08, 12.08 98.83, 12.0 98.5 C 11.92 98.17, 12.08 97.33, 12.0 97.0 C 11.92 96.67, 11.58 96.83, 11.5 96.5 C 11.42 96.17, 11.58 95.33, 11.5 95.0 C 11.42 94.67, 11.08 94.92, 11.0 94.5 C 10.92 94.08, 11.08 92.92, 11.0 92.5 C 10.92 92.08, 10.58 92.67, 10.5 92.0 C 10.42 91.33, 10.58 89.17, 10.5 88.5 C 10.42 87.83, 10.08 88.58, 10.0 88.0 C 9.92 87.42, 10.08 85.58, 10.0 85.0 C 9.92 84.42, 9.58 85.0, 9.5 84.5 C 9.42 84.0, 9.58 82.5, 9.5 82.0 C 9.42 81.5, 9.08 82.08, 9.0 81.5 C 8.92 80.92, 9.08 79.08, 9.0 78.5 C 8.92 77.92, 8.58 79.0, 8.5 78.0 C 8.42 77.0, 8.58 73.5, 8.5 72.5 C 8.42 71.5, 8.08 73.33, 8.0 72.0 C 7.92 70.67, 8.08 65.83, 8.0 64.5 C 7.92 63.17, 7.58 65.92, 7.5 64.0 C 7.42 62.08, 7.58 54.92, 7.5 53.0 C 7.42 51.08, 7.08 53.92, 7.0 52.5 C 6.92 51.08, 7.08 45.92, 7.0 44.5 C 6.92 43.08, 6.58 45.58, 6.5 44.0 C 6.42 42.42, 6.08 36.58, 6.5 35.0 C 6.92 33.42, 8.5 34.67, 9.0 34.5 C 9.5 34.33, 8.67 34.08, 9.5 34.0 C 10.33 33.92, 13.17 34.08, 14.0 34.0 C 14.83 33.92, 14.17 33.58, 14.5 33.5 C 14.83 33.42, 15.67 33.58, 16.0 33.5 C 16.33 33.42, 15.75 33.17, 16.5 33.0 C 17.25 32.83, 19.75 32.67, 20.5 32.5 C 21.25 32.33, 20.58 32.08, 21.0 32.0 C 21.42 31.92, 22.33 32.17, 23.0 32.0 C 23.67 31.83, 23.75 31.25, 25.0 31.0 C 26.25 30.75, 29.5 30.67, 30.5 30.5 C 31.5 30.33, 30.67 30.08, 31.0 30.0 C 31.33 29.92, 32.17 30.08, 32.5 30.0 C 32.83 29.92, 32.58 29.58, 33.0 29.5 C 33.42 29.42, 34.42 29.67, 35.0 29.5 C 35.58 29.33, 35.67 28.75, 36.5 28.5 C 37.33 28.25, 39.08 28.25, 40.0 28.0 C 40.92 27.75, 41.08 27.25, 42.0 27.0 C 42.92 26.75, 44.83 26.67, 45.5 26.5 C 46.17 26.33, 45.5 26.17, 46.0 26.0 C 46.5 25.83, 47.83 25.75, 48.5 25.5 C 49.17 25.25, 49.5 24.67, 50.0 24.5 C 50.5 24.33, 50.83 24.75, 51.5 24.5 C 52.17 24.25, 52.92 23.42, 54.0 23.0 C 55.08 22.58, 56.0 22.83, 58.0 22.0 C 60.0 21.17, 64.42 18.67, 66.0 18.0 C 67.58 17.33, 67.08 18.17, 67.5 18.0 C 67.92 17.83, 67.92 17.33, 68.5 17.0 C 69.08 16.67, 70.42 16.33, 71.0 16.0 C 71.58 15.67, 71.25 15.42, 72.0 15.0 C 72.75 14.58, 74.42 14.17, 75.5 13.5 C 76.58 12.83, 78.0 11.42, 78.5 11.0 Z" fill="#E85D26" />
  <path d="M 126.0 82.0 C 127.25 81.67, 128.58 81.83, 129.5 82.0 C 130.42 82.17, 131.0 82.67, 131.5 83.0 C 132.0 83.33, 132.25 83.83, 132.5 84.0 C 132.75 84.17, 132.83 83.83, 133.0 84.0 C 133.17 84.17, 133.25 84.67, 133.5 85.0 C 133.75 85.33, 134.25 85.83, 134.5 86.0 C 134.75 86.17, 134.75 85.75, 135.0 86.0 C 135.25 86.25, 135.67 87.25, 136.0 87.5 C 136.33 87.75, 136.58 87.33, 137.0 87.5 C 137.42 87.67, 137.67 88.33, 138.5 88.5 C 139.33 88.67, 141.33 88.42, 142.0 88.5 C 142.67 88.58, 142.17 88.92, 142.5 89.0 C 142.83 89.08, 143.67 89.08, 144.0 89.0 C 144.33 88.92, 144.17 88.58, 144.5 88.5 C 144.83 88.42, 145.67 88.58, 146.0 88.5 C 146.33 88.42, 146.33 88.0, 146.5 88.0 C 146.67 88.0, 147.0 87.42, 147.0 88.5 C 147.0 89.58, 146.75 93.25, 146.5 94.5 C 146.25 95.75, 145.67 95.25, 145.5 96.0 C 145.33 96.75, 145.58 98.42, 145.5 99.0 C 145.42 99.58, 145.08 99.08, 145.0 99.5 C 144.92 99.92, 145.08 101.08, 145.0 101.5 C 144.92 101.92, 144.67 101.5, 144.5 102.0 C 144.33 102.5, 144.17 104.0, 144.0 104.5 C 143.83 105.0, 143.67 104.25, 143.5 105.0 C 143.33 105.75, 143.25 108.08, 143.0 109.0 C 142.75 109.92, 142.25 109.83, 142.0 110.5 C 141.75 111.17, 141.67 112.5, 141.5 113.0 C 141.33 113.5, 141.08 113.17, 141.0 113.5 C 140.92 113.83, 141.17 114.5, 141.0 115.0 C 140.83 115.5, 140.17 116.08, 140.0 116.5 C 139.83 116.92, 140.17 117.08, 140.0 117.5 C 139.83 117.92, 139.17 118.58, 139.0 119.0 C 138.83 119.42, 139.17 119.58, 139.0 120.0 C 138.83 120.42, 138.17 121.08, 138.0 121.5 C 137.83 121.92, 138.17 122.08, 138.0 122.5 C 137.83 122.92, 137.17 123.58, 137.0 124.0 C 136.83 124.42, 137.33 124.25, 137.0 125.0 C 136.67 125.75, 135.33 127.75, 135.0 128.5 C 134.67 129.25, 135.17 129.17, 135.0 129.5 C 134.83 129.83, 134.67 129.25, 134.0 130.5 C 133.33 131.75, 131.67 135.75, 131.0 137.0 C 130.33 138.25, 130.33 137.42, 130.0 138.0 C 129.67 138.58, 129.33 139.92, 129.0 140.5 C 128.67 141.08, 128.25 141.08, 128.0 141.5 C 127.75 141.92, 127.75 142.58, 127.5 143.0 C 127.25 143.42, 126.92 143.33, 126.5 144.0 C 126.08 144.67, 125.75 145.92, 125.0 147.0 C 124.25 148.08, 122.67 149.58, 122.0 150.5 C 121.33 151.42, 121.58 151.75, 121.0 152.5 C 120.42 153.25, 119.0 154.33, 118.5 155.0 C 118.0 155.67, 119.17 155.08, 118.0 156.5 C 116.83 157.92, 112.58 162.25, 111.5 163.5 C 110.42 164.75, 112.67 162.75, 111.5 164.0 C 110.33 165.25, 105.75 169.83, 104.5 171.0 C 103.25 172.17, 104.42 170.58, 104.0 171.0 C 103.58 171.42, 102.42 173.08, 102.0 173.5 C 101.58 173.92, 102.33 172.83, 101.5 173.5 C 100.67 174.17, 97.92 176.83, 97.0 177.5 C 96.08 178.17, 96.33 177.33, 96.0 177.5 C 95.67 177.67, 95.17 178.25, 95.0 178.5 C 94.83 178.75, 95.33 178.75, 95.0 179.0 C 94.67 179.25, 93.92 179.33, 93.0 180.0 C 92.08 180.67, 90.33 182.42, 89.5 183.0 C 88.67 183.58, 88.67 183.08, 88.0 183.5 C 87.33 183.92, 86.25 185.08, 85.5 185.5 C 84.75 185.92, 84.25 185.58, 83.5 186.0 C 82.75 186.42, 81.92 187.58, 81.0 188.0 C 80.08 188.42, 79.0 188.67, 78.0 188.5 C 77.0 188.33, 75.67 187.42, 75.0 187.0 C 74.33 186.58, 74.33 186.17, 74.0 186.0 C 73.67 185.83, 73.33 186.17, 73.0 186.0 C 72.67 185.83, 72.42 185.25, 72.0 185.0 C 71.58 184.75, 71.08 184.83, 70.5 184.5 C 69.92 184.17, 68.75 183.25, 68.5 183.0 C 68.25 182.75, 68.75 183.17, 69.0 183.0 C 69.25 182.83, 69.83 182.75, 70.0 182.0 C 70.17 181.25, 69.92 179.17, 70.0 178.5 C 70.08 177.83, 70.42 178.33, 70.5 178.0 C 70.58 177.67, 70.25 177.25, 70.5 176.5 C 70.75 175.75, 71.67 174.5, 72.0 173.5 C 72.33 172.5, 72.33 171.08, 72.5 170.5 C 72.67 169.92, 72.92 170.25, 73.0 170.0 C 73.08 169.75, 72.75 169.67, 73.0 169.0 C 73.25 168.33, 74.25 166.75, 74.5 166.0 C 74.75 165.25, 74.42 164.83, 74.5 164.5 C 74.58 164.17, 74.92 164.25, 75.0 164.0 C 75.08 163.75, 74.83 163.42, 75.0 163.0 C 75.17 162.58, 75.75 162.17, 76.0 161.5 C 76.25 160.83, 76.33 159.5, 76.5 159.0 C 76.67 158.5, 76.92 158.92, 77.0 158.5 C 77.08 158.08, 76.83 157.08, 77.0 156.5 C 77.17 155.92, 77.75 155.67, 78.0 155.0 C 78.25 154.33, 78.17 153.33, 78.5 152.5 C 78.83 151.67, 79.67 150.92, 80.0 150.0 C 80.33 149.08, 80.25 147.75, 80.5 147.0 C 80.75 146.25, 81.33 145.92, 81.5 145.5 C 81.67 145.08, 81.33 144.92, 81.5 144.5 C 81.67 144.08, 82.33 143.42, 82.5 143.0 C 82.67 142.58, 82.17 142.75, 82.5 142.0 C 82.83 141.25, 84.17 139.25, 84.5 138.5 C 84.83 137.75, 84.25 138.0, 84.5 137.5 C 84.75 137.0, 85.75 136.0, 86.0 135.5 C 86.25 135.0, 85.83 134.83, 86.0 134.5 C 86.17 134.17, 86.67 134.08, 87.0 133.5 C 87.33 132.92, 87.58 131.67, 88.0 131.0 C 88.42 130.33, 89.08 130.17, 89.5 129.5 C 89.92 128.83, 90.08 127.67, 90.5 127.0 C 90.92 126.33, 91.75 125.92, 92.0 125.5 C 92.25 125.08, 91.83 124.83, 92.0 124.5 C 92.17 124.17, 92.58 124.25, 93.0 123.5 C 93.42 122.75, 94.08 120.67, 94.5 120.0 C 94.92 119.33, 95.0 120.25, 95.5 119.5 C 96.0 118.75, 96.83 116.58, 97.5 115.5 C 98.17 114.42, 99.0 113.75, 99.5 113.0 C 100.0 112.25, 100.08 111.58, 100.5 111.0 C 100.92 110.42, 101.75 109.92, 102.0 109.5 C 102.25 109.08, 101.83 108.83, 102.0 108.5 C 102.17 108.17, 102.83 107.75, 103.0 107.5 C 103.17 107.25, 102.5 107.67, 103.0 107.0 C 103.5 106.33, 105.25 104.58, 106.0 103.5 C 106.75 102.42, 106.92 101.33, 107.5 100.5 C 108.08 99.67, 109.17 98.92, 109.5 98.5 C 109.83 98.08, 109.25 98.33, 109.5 98.0 C 109.75 97.67, 110.75 96.83, 111.0 96.5 C 111.25 96.17, 110.75 96.33, 111.0 96.0 C 111.25 95.67, 112.25 94.83, 112.5 94.5 C 112.75 94.17, 112.0 94.58, 112.5 94.0 C 113.0 93.42, 115.0 91.58, 115.5 91.0 C 116.0 90.42, 114.42 91.67, 115.5 90.5 C 116.58 89.33, 120.25 85.42, 122.0 84.0 C 123.75 82.58, 125.33 82.33, 126.0 82.0 Z" fill="#D01F39" />
</svg>